<svg width="400" height="120" viewBox="0 0 400 120" fill="none" xmlns="http://www.w3.org/2000/svg">
  <!-- Letter 'a' -->
  <path d="M 50 85 Q 50 65 65 65 Q 80 65 80 85 L 80 95 Q 80 100 75 100 L 55 100 Q 50 100 50 95 Z M 65 75 Q 60 75 60 80 L 60 90 Q 60 95 65 95 L 70 95 Q 75 95 75 90 L 75 80 Q 75 75 70 75 Z" fill="url(#gradient1)"/>
  <circle cx="65" cy="58" r="5" fill="url(#gradient1)"/>
  
  <!-- Letter 'm' -->
  <path d="M 95 70 L 95 100 L 105 100 L 105 80 Q 105 70 115 70 Q 120 70 120 75 L 120 100 L 130 100 L 130 80 Q 130 70 140 70 Q 145 70 145 75 L 145 100 L 155 100 L 155 75 Q 155 65 145 65 Q 140 65 135 68 Q 130 65 120 65 Q 110 65 105 68 Q 100 65 95 70 Z" fill="url(#gradient2)"/>
  
  <!-- Letter 'i' with compass -->
  <g id="compass-i">
    <!-- Compass circle -->
    <circle cx="175" cy="50" r="8" fill="none" stroke="url(#gradient3)" stroke-width="1.5"/>
    <circle cx="175" cy="50" r="4" fill="url(#gradient3)"/>
    
    <!-- Compass legs -->
    <line x1="175" y1="50" x2="165" y2="90" stroke="url(#gradient3)" stroke-width="2.5" stroke-linecap="round"/>
    <line x1="175" y1="50" x2="185" y2="90" stroke="url(#gradient3)" stroke-width="2.5" stroke-linecap="round"/>
    
    <!-- Compass adjustment lines -->
    <line x1="165" y1="85" x2="165" y2="95" stroke="url(#gradient3)" stroke-width="1.5" stroke-linecap="round"/>
    <line x1="185" y1="85" x2="185" y2="95" stroke="url(#gradient3)" stroke-width="1.5" stroke-linecap="round"/>
    
    <!-- Vertical line of 'i' -->
    <rect x="172" y="70" width="6" height="30" rx="3" fill="url(#gradient3)"/>
  </g>
  
  <!-- Letter 's' -->
  <path d="M 210 75 Q 210 65 220 65 Q 230 65 230 70 L 220 70 Q 215 70 215 75 Q 215 80 220 80 L 225 80 Q 235 80 235 90 Q 235 100 225 100 Q 215 100 215 95 L 225 95 Q 230 95 230 90 Q 230 85 225 85 L 220 85 Q 210 85 210 75 Z" fill="url(#gradient4)"/>
  
  <!-- Letter 't' -->
  <rect x="250" y="55" width="6" height="45" rx="3" fill="url(#gradient4)"/>
  <rect x="243" y="68" width="20" height="4" rx="2" fill="url(#gradient4)"/>
  
  <!-- Letter 'a' -->
  <path d="M 280 85 Q 280 65 295 65 Q 310 65 310 85 L 310 95 Q 310 100 305 100 L 285 100 Q 280 100 280 95 Z M 295 75 Q 290 75 290 80 L 290 90 Q 290 95 295 95 L 300 95 Q 305 95 305 90 L 305 80 Q 305 75 300 75 Z" fill="url(#gradient5)"/>
  <circle cx="295" cy="58" r="5" fill="url(#gradient5)"/>
  
  <!-- Letter 'd' -->
  <path d="M 325 85 Q 325 65 340 65 Q 355 65 355 85 L 355 95 Q 355 100 350 100 L 330 100 Q 325 100 325 95 Z M 340 75 Q 335 75 335 80 L 335 90 Q 335 95 340 95 L 345 95 Q 350 95 350 90 L 350 80 Q 350 75 345 75 Z" fill="url(#gradient6)"/>
  <rect x="352" y="50" width="6" height="50" rx="3" fill="url(#gradient6)"/>
  
  <!-- Gradients -->
  <defs>
    <linearGradient id="gradient1" x1="0%" y1="0%" x2="100%" y2="0%">
      <stop offset="0%" style="stop-color:#0d9488;stop-opacity:1" />
      <stop offset="100%" style="stop-color:#0891b2;stop-opacity:1" />
    </linearGradient>
    <linearGradient id="gradient2" x1="0%" y1="0%" x2="100%" y2="0%">
      <stop offset="0%" style="stop-color:#0891b2;stop-opacity:1" />
      <stop offset="100%" style="stop-color:#0284c7;stop-opacity:1" />
    </linearGradient>
    <linearGradient id="gradient3" x1="0%" y1="0%" x2="100%" y2="0%">
      <stop offset="0%" style="stop-color:#0284c7;stop-opacity:1" />
      <stop offset="100%" style="stop-color:#1e40af;stop-opacity:1" />
    </linearGradient>
    <linearGradient id="gradient4" x1="0%" y1="0%" x2="100%" y2="0%">
      <stop offset="0%" style="stop-color:#1e40af;stop-opacity:1" />
      <stop offset="100%" style="stop-color:#1e3a8a;stop-opacity:1" />
    </linearGradient>
    <linearGradient id="gradient5" x1="0%" y1="0%" x2="100%" y2="0%">
      <stop offset="0%" style="stop-color:#1e3a8a;stop-opacity:1" />
      <stop offset="100%" style="stop-color:#1e40af;stop-opacity:1" />
    </linearGradient>
    <linearGradient id="gradient6" x1="0%" y1="0%" x2="100%" y2="0%">
      <stop offset="0%" style="stop-color:#1e40af;stop-opacity:1" />
      <stop offset="100%" style="stop-color:#312e81;stop-opacity:1" />
    </linearGradient>
  </defs>
</svg>
